<?xml version="1.0" encoding="UTF-8"?>
<svg id="Layer_1" xmlns="http://www.w3.org/2000/svg" version="1.1" viewBox="0 0 612 792">
  <!-- Generator: Adobe Illustrator 29.0.0, SVG Export Plug-In . SVG Version: 2.1.0 Build 186)  -->
  <defs>
    <style>
      .st0 {
        fill: #018a69;
      }
    </style>
  </defs>
  <path class="st0" d="M378.1,135.6c37.4,21,74.7,42.1,112.1,62.9,5.5,3.1,4.2,7.7,4.2,12.1,0,64.2-.3,128.4.3,192.6.1,12.9-1.4,22.2-14.9,28.1-14.4,6.3-27.7,15.2-41.4,23-3.4-3.6-1.9-7.4-2-10.8-.1-65.5-.3-131.1.2-196.6,0-9.8-3.1-14.8-11.5-19.2-16.1-8.4-31.6-18.1-47.4-27.3,0-21.6.2-43.2.3-64.9Z"/>
  <path class="st0" d="M228,652.3c-29.8-16.7-59-34.6-89.6-49.6-17.3-8.5-21.8-19.1-21.4-37.6,1.3-61.9.7-123.8.3-185.8,0-8.1,2.5-12.5,9.6-16.2,16-8.4,31.5-17.8,48.7-27.7,0,5.4,0,9,0,12.5,0,64.6.5,129.2-.4,193.8-.2,13.4,5.4,19.2,15.8,24.5,14.2,7.2,27.7,15.7,41.5,23.6-4.6,4.8-1.9,10.7-2.4,16.1-1.3,15.4,2.4,31.1-2.1,46.4Z"/>
  <path class="st0" d="M439.7,473.5c20.6-12.8,41.1-25.8,61.9-38.2,6-3.5,7.9-7.5,7.9-14.3-.3-60.6-.1-121.2-.1-181.8,0-3.6,0-7.3,0-11,3.7-.3,3.8,2.6,4.8,4.3,16.7,28.8,33.2,57.6,49.9,86.4,2.5,4.2,3.4,8.4,3.4,13.2-.1,41.3,0,82.6,0,123.8,0,4.3.5,8.3-4.4,11.1-40.1,23-80,46.2-120,69.3-4.3-2.6-3-6.9-3-10.7-.2-17.4-.2-34.9-.2-52.3Z"/>
  <path class="st0" d="M170.2,320.2c-19.9,12-39.7,24.3-59.8,35.9-6,3.4-7.9,7.4-7.9,14.2.3,60.6.2,121.1.2,181.7,0,3.6,0,7.2,0,10.8-.6.2-1.2.5-1.7.7-6.2-10.2-12.6-20.4-18.6-30.7-11.5-20-22.8-40.2-34.3-60.2-2.4-4.2-3.5-8.4-3.5-13.2.1-41.3,0-82.5,0-123.8,0-4.4,0-8.2,4.7-11,39.7-22.7,79.2-45.6,118.8-68.5,0,17.9,0,35.8,0,53.8,0,3.5-1.1,7.4,2.1,10.3Z"/>
  <path class="st0" d="M373.5,654.1c-26.5-15.2-53-30.3-79.4-45.6-32.5-18.8-64.8-37.7-97.4-56.3-4.9-2.8-7-5.9-6.9-11.7.4-19.2.1-38.3.1-59.4,63.6,37,125.8,73.2,187.9,109.3,0,19.4,0,38.8,0,58.2,0,3.1-1.1,5.1-4.4,5.5Z"/>
  <path class="st0" d="M238,136.4c41.2,23.7,82.3,47.3,123.5,71,18.1,10.5,36.2,21,54.4,31.5,3.5,2,6.4,3.8,6.3,8.9-.3,19.9-.1,39.9-.1,59.5-3.6,1.8-5.6-.6-7.7-1.8-58.5-34.1-116.9-68.3-175.3-102.6-1.1-.7-2.1-1.6-3.1-2.4,0-4.3,0-8.6.1-12.9.8-17.1-2.1-34.3,1.9-51.3Z"/>
  <path class="st0" d="M238,136.4c-4,17-1.1,34.2-1.9,51.3-.2,4.3,0,8.6-.1,12.9-4.5-1.2-7.5,2.1-10.8,4-52.7,30.4-105.3,60.8-158.1,91.2-3,1.7-5.7,4.8-11.2,4,5.7-10.1,11-19.7,16.5-29.2,12-21,24-42,36-63,2-3.6,4.5-6.3,8.1-8.4,36.5-20.9,73-41.9,109.4-63.2,4.6-2.7,8.3-4,12.2.5Z"/>
  <path class="st0" d="M373.5,654.1c3.2-.4,4.4-2.4,4.4-5.5,0-19.4,0-38.8,0-58.2,4.5,1.6,7.6-1.6,10.9-3.5,51.4-29.8,102.7-59.8,154.1-89.6,3.3-1.9,6.2-4.8,10.5-4.9,1.4,4.4-1.9,7.1-3.6,10-15.5,27.1-31.1,54.1-46.6,81.2-2.2,3.9-5,6.8-8.9,9-36,20.7-72,41.5-107.9,62.5-4.9,2.9-8.9,4.4-12.8-1.1Z"/>
  <path class="st0" d="M170.2,320.2c-3.2-2.9-2-6.8-2.1-10.3-.1-17.9,0-35.8,0-53.8,20.8-12.4,41.6-24.6,62.3-37.2,3.8-2.3,6.6-1.4,10,.5,16.9,9.8,33.9,19.6,50.9,29.3-.3.9-.4,1.8-.8,2-40.1,23.2-80.2,46.3-120.3,69.4Z"/>
  <path class="st0" d="M439.7,473.5c0,17.4,0,34.9.2,52.3,0,3.8-1.3,8.1,3,10.7-20.6,12.2-41.1,24.4-61.7,36.7-2.8,1.7-5.3,1.8-8.3,0-17.1-10.1-34.4-20.1-53.1-31,10-5.8,18.7-10.9,27.5-16,30.7-17.6,61.5-35.2,92.2-52.9Z"/>
  <path class="st0" d="M228,652.3c4.5-15.3.8-31,2.1-46.4.5-5.4-2.2-11.3,2.4-16.1,33.2,18.1,66.5,36.1,98.6,56.2,5.3,3.3,10.9,6.1,15.9,10.8-22.8,0-45.7,0-68.5,0-12.3,0-24.6,0-36.9,0-5.1,0-9.9-.5-13.7-4.5Z"/>
  <path class="st0" d="M378.1,135.6c0,21.6-.2,43.2-.3,64.9-15.6-8.7-31.3-17.3-46.9-26-22.5-12.7-45-25.4-67.7-38.2,2.2-3.4,5.1-1.9,7.4-1.9,32.9,0,65.8,0,98.8,0,2.9,0,6-.9,8.7,1.2Z"/>
</svg>